name Walk4.mot
datacolumns 19
datarows 22
range 2.22500000 2.24600000
endheader

                time	   L_ground_force_vx	   L_ground_force_vy	   L_ground_force_vz	   L_ground_force_px	   L_ground_force_py	   L_ground_force_pz	   R_ground_force_vx	   R_ground_force_vy	   R_ground_force_vz	   R_ground_force_px	   R_ground_force_py	   R_ground_force_pz	   L_ground_torque_x	   L_ground_torque_y	   L_ground_torque_z	   R_ground_torque_x	   R_ground_torque_y	   R_ground_torque_z	
          2.22500000	         27.56117083	        941.96574379	         63.24817092	         -0.25196167	          0.00000000	         -0.04888848	         -0.06406846	          0.54397748	          0.04519076	          0.00027368	          0.00000000	          0.00012117	          0.00000000	         -0.78321832	          0.00000000	          0.00000000	          0.01067507	          0.00000000	
          2.22600000	         28.13998082	        942.48022632	         63.28491606	         -0.25172678	          0.00000000	         -0.04893448	         -0.06687652	          0.57250523	          0.04702493	          0.00028254	          0.00000000	          0.00012511	          0.00000000	         -0.78585623	          0.00000000	          0.00000000	          0.01113591	          0.00000000	
          2.22700000	         28.72220210	        942.98236155	         63.32080498	         -0.25149090	          0.00000000	         -0.04898101	         -0.06966932	          0.60131953	          0.04883534	          0.00029107	          0.00000000	          0.00012889	          0.00000000	         -0.78843297	          0.00000000	          0.00000000	          0.01159358	          0.00000000	
          2.22800000	         29.30781727	        943.47171483	         63.35594133	         -0.25125399	          0.00000000	         -0.04902811	         -0.07243391	          0.63032801	          0.05061230	          0.00029918	          0.00000000	          0.00013250	          0.00000000	         -0.79094988	          0.00000000	          0.00000000	          0.01204590	          0.00000000	
          2.22900000	         29.89680125	        943.94785423	         63.39042846	         -0.25101602	          0.00000000	         -0.04907580	         -0.07515626	          0.65942890	          0.05234536	          0.00030681	          0.00000000	          0.00013589	          0.00000000	         -0.79340770	          0.00000000	          0.00000000	          0.01249050	          0.00000000	
          2.23000000	         30.48912114	        944.41035099	         63.42436937	         -0.25077693	          0.00000000	         -0.04912411	         -0.07782120	          0.68851062	          0.05402327	          0.00031389	          0.00000000	          0.00013904	          0.00000000	         -0.79580627	          0.00000000	          0.00000000	          0.01292483	          0.00000000	
          2.23100000	         31.08473602	        944.85878057	         63.45786648	         -0.25053670	          0.00000000	         -0.04917307	         -0.08041238	          0.71745126	          0.05563400	          0.00032032	          0.00000000	          0.00014190	          0.00000000	         -0.79814440	          0.00000000	          0.00000000	          0.01334615	          0.00000000	
          2.23200000	         31.68359665	        945.29272464	         63.49102123	         -0.25029525	          0.00000000	         -0.04922271	         -0.08291225	          0.74611821	          0.05716465	          0.00032603	          0.00000000	          0.00014445	          0.00000000	         -0.80041991	          0.00000000	          0.00000000	          0.01375149	          0.00000000	
          2.23300000	         32.28564521	        945.71177373	         63.52393363	         -0.25005254	          0.00000000	         -0.04927305	         -0.08530200	          0.77436764	          0.05860144	          0.00033093	          0.00000000	          0.00014664	          0.00000000	         -0.80263000	          0.00000000	          0.00000000	          0.01413771	          0.00000000	
          2.23400000	         32.89081499	        946.11553001	         63.55670160	         -0.24980849	          0.00000000	         -0.04932413	         -0.08756153	          0.80204407	          0.05992973	          0.00033491	          0.00000000	          0.00014842	          0.00000000	         -0.80477165	          0.00000000	          0.00000000	          0.01450144	          0.00000000	
          2.23500000	         33.49903015	        946.50360988	         63.58942025	         -0.24956304	          0.00000000	         -0.04937597	         -0.08966940	          0.82897997	          0.06113394	          0.00033788	          0.00000000	          0.00014975	          0.00000000	         -0.80684217	          0.00000000	          0.00000000	          0.01483907	          0.00000000	
          2.23600000	         34.11020553	        946.87564648	         63.62218103	         -0.24931612	          0.00000000	         -0.04942861	         -0.09160282	          0.85499528	          0.06219758	          0.00033973	          0.00000000	          0.00015059	          0.00000000	         -0.80883962	          0.00000000	          0.00000000	          0.01514679	          0.00000000	
          2.23700000	         34.72424662	        947.23129261	         63.65507077	         -0.24906766	          0.00000000	         -0.04948208	         -0.09333760	          0.87989701	          0.06310318	          0.00034035	          0.00000000	          0.00015089	          0.00000000	         -0.81076315	          0.00000000	          0.00000000	          0.01542056	          0.00000000	
          2.23800000	         35.34104966	        947.57022434	         63.68817086	         -0.24881756	          0.00000000	         -0.04953640	         -0.09484810	          0.90347884	          0.06383233	          0.00033962	          0.00000000	          0.00015059	          0.00000000	         -0.81261292	          0.00000000	          0.00000000	          0.01565607	          0.00000000	
          2.23900000	         35.96050181	        947.89214478	         63.72155659	         -0.24856576	          0.00000000	         -0.04959161	         -0.09610725	          0.92552072	          0.06436562	          0.00033742	          0.00000000	          0.00014965	          0.00000000	         -0.81438983	          0.00000000	          0.00000000	          0.01584882	          0.00000000	
          2.24000000	         36.58248114	        948.19678769	         63.75529682	         -0.24831215	          0.00000000	         -0.04964775	         -0.09708649	          0.94578853	          0.06468263	          0.00033362	          0.00000000	          0.00014799	          0.00000000	         -0.81609507	          0.00000000	          0.00000000	          0.01599402	          0.00000000	
          2.24100000	         37.20685649	        948.48392036	         63.78945393	         -0.24805666	          0.00000000	         -0.04970484	         -0.09775578	          0.96403371	          0.06476198	          0.00032809	          0.00000000	          0.00014557	          0.00000000	         -0.81772959	          0.00000000	          0.00000000	          0.01608666	          0.00000000	
          2.24200000	         37.83348703	        948.75334573	         63.82408378	         -0.24779918	          0.00000000	         -0.04976294	         -0.09808353	          0.97999294	          0.06458123	          0.00032070	          0.00000000	          0.00014233	          0.00000000	         -0.81929380	          0.00000000	          0.00000000	          0.01612147	          0.00000000	
          2.24300000	         38.46222165	        949.00490326	         63.85923559	         -0.24753962	          0.00000000	         -0.04982207	         -0.09803666	          0.99338791	          0.06411697	          0.00031129	          0.00000000	          0.00013820	          0.00000000	         -0.82078736	          0.00000000	          0.00000000	          0.01609293	          0.00000000	
          2.24400000	         39.09289839	        949.23846828	         63.89495172	         -0.24727787	          0.00000000	         -0.04988229	         -0.09758055	          1.00392500	          0.06334477	          0.00029972	          0.00000000	          0.00013311	          0.00000000	         -0.82220918	          0.00000000	          0.00000000	          0.01599529	          0.00000000	
          2.24500000	         39.72534391	        949.45394982	         63.93126710	         -0.24701382	          0.00000000	         -0.04994361	         -0.09667907	          1.01129514	          0.06223921	          0.00028584	          0.00000000	          0.00012700	          0.00000000	         -0.82355767	          0.00000000	          0.00000000	          0.01582251	          0.00000000	
          2.24600000	         40.35937318	        949.65128754	         63.96820891	         -0.24674737	          0.00000000	         -0.05000608	         -0.09529453	          1.01517358	          0.06077387	          0.00026949	          0.00000000	          0.00011979	          0.00000000	         -0.82483101	          0.00000000	          0.00000000	          0.01556833	          0.00000000	
